<?xml version="1.0" standalone="no"?>
<!DOCTYPE svg PUBLIC "-//W3C//DTD SVG 20010904//EN"
 "http://www.w3.org/TR/2001/REC-SVG-20010904/DTD/svg10.dtd">
<svg version="1.0" xmlns="http://www.w3.org/2000/svg"
 width="512.000000pt" height="512.000000pt" viewBox="0 0 512.000000 512.000000"
 preserveAspectRatio="xMidYMid meet">
<metadata>
Created by potrace 1.15, written by Peter Selinger 2001-2017
</metadata>
<g transform="translate(0.000000,512.000000) scale(0.100000,-0.100000)"
fill="#000000" stroke="none">
<path d="M298 5052 c-35 -32 -82 -70 -105 -85 -61 -42 -111 -95 -149 -161 -34
-57 -35 -61 -29 -138 3 -45 8 -84 10 -89 3 -4 1 -10 -5 -14 -5 -3 -10 -17 -10
-31 0 -21 3 -23 18 -15 14 8 22 2 40 -30 l23 -40 -40 -46 c-23 -26 -41 -56
-41 -69 0 -13 3 -24 6 -24 3 0 30 23 60 52 l55 52 31 -32 32 -31 -92 -95 c-67
-69 -92 -102 -92 -121 0 -14 3 -25 6 -25 4 0 55 48 115 106 l108 106 33 -23
c18 -12 35 -24 37 -26 3 -2 -64 -72 -147 -157 -119 -120 -152 -159 -152 -180
0 -22 3 -25 18 -17 9 5 87 80 172 165 85 86 158 156 162 156 4 0 23 -10 43
-21 l36 -22 -215 -217 c-173 -173 -216 -222 -216 -243 0 -15 3 -27 7 -27 4 0
112 104 240 232 l232 231 41 -18 c22 -10 40 -21 40 -24 0 -3 -126 -132 -280
-286 -227 -228 -280 -287 -280 -308 0 -15 3 -27 7 -27 4 0 141 134 305 297
l297 297 40 -19 c23 -10 41 -21 41 -24 0 -3 -155 -161 -345 -351 -284 -285
-345 -351 -345 -373 0 -23 3 -26 18 -18 9 5 176 169 371 364 l354 355 44 -21
43 -21 -415 -416 c-341 -342 -415 -421 -415 -443 0 -15 3 -27 7 -27 4 0 202
194 439 431 l432 432 41 -24 42 -23 -481 -481 c-397 -397 -480 -486 -480 -508
0 -15 3 -27 7 -27 4 0 231 223 504 496 l496 495 36 -21 c20 -12 37 -25 37 -28
0 -4 -243 -250 -540 -547 -451 -452 -540 -545 -540 -568 0 -23 3 -26 18 -18 9
5 264 257 566 559 l549 550 39 -26 39 -25 -605 -607 c-504 -503 -606 -610
-606 -633 0 -15 3 -27 7 -27 4 0 287 280 629 621 l622 622 34 -23 c18 -13 35
-25 37 -27 3 -2 -295 -304 -662 -671 -555 -556 -667 -672 -667 -695 0 -15 3
-27 7 -27 4 0 314 307 689 681 l682 682 36 -22 c20 -13 36 -26 36 -29 0 -4
-326 -333 -725 -732 -605 -605 -725 -730 -725 -753 0 -15 3 -27 7 -27 4 0 341
334 749 741 l742 742 36 -22 c20 -13 36 -26 36 -29 0 -4 -353 -360 -785 -792
-655 -656 -785 -790 -785 -813 0 -15 3 -27 7 -27 4 0 369 361 810 802 l802
801 36 -28 37 -28 -846 -846 c-713 -713 -846 -851 -846 -874 0 -23 3 -26 18
-18 9 5 399 392 866 859 l849 850 39 -26 39 -25 -905 -906 c-758 -759 -906
-911 -906 -934 0 -15 3 -27 7 -27 4 0 420 413 925 917 l917 917 35 -25 c20
-13 36 -27 36 -31 0 -3 -66 -62 -147 -129 -459 -383 -907 -830 -1178 -1175
-43 -54 -194 -216 -337 -360 -208 -210 -258 -266 -258 -287 0 -15 3 -27 7 -27
4 0 80 73 171 162 l164 163 -55 -90 c-30 -49 -67 -115 -82 -145 -16 -32 -65
-93 -116 -147 -65 -67 -89 -99 -89 -118 0 -14 2 -25 5 -25 3 0 29 21 57 48 32
29 49 39 44 27 -4 -11 -19 -53 -33 -94 -13 -41 -36 -89 -49 -106 -27 -35 -33
-78 -10 -69 11 4 12 -3 4 -43 -12 -58 -18 -364 -7 -357 4 2 13 -20 20 -50 11
-50 10 -56 -10 -85 -12 -17 -21 -40 -19 -52 l3 -21 28 22 c32 26 30 27 51 -24
l16 -38 -50 -55 c-31 -34 -50 -64 -50 -79 0 -13 3 -24 6 -24 3 0 32 25 63 55
l58 55 26 -38 25 -39 -55 -54 c-72 -71 -82 -89 -49 -89 16 0 45 19 83 54 l58
54 33 -28 c33 -28 34 -28 17 -54 -17 -25 -17 -26 4 -26 12 0 32 6 44 14 19 13
31 13 95 0 l72 -16 85 41 c100 48 177 121 245 232 38 62 207 236 1080 1111
l1034 1038 33 -32 33 -32 -1170 -1171 c-643 -644 -1170 -1174 -1170 -1178 0
-4 12 -7 27 -7 23 0 214 186 1188 1160 l1161 1160 32 -33 32 -32 -1111 -1110
c-611 -611 -1115 -1118 -1120 -1128 -8 -14 -5 -17 18 -17 23 0 200 172 1139
1111 l1111 1111 26 -32 c15 -17 27 -35 27 -38 0 -4 -475 -482 -1056 -1062
-580 -580 -1060 -1063 -1065 -1073 -8 -14 -5 -17 18 -17 23 0 192 164 1085
1057 l1058 1058 32 -33 33 -32 -1018 -1018 c-559 -559 -1017 -1021 -1017
-1025 0 -4 12 -7 27 -7 23 0 190 163 1033 1005 l1006 1005 32 -33 32 -32 -956
-955 c-525 -525 -960 -963 -965 -972 -8 -15 -5 -18 18 -18 23 0 177 149 983
954 l955 954 29 -35 29 -35 -911 -911 c-502 -502 -912 -916 -912 -920 0 -4 12
-7 27 -7 23 0 175 147 928 900 l901 900 32 -33 32 -32 -851 -850 c-468 -468
-855 -858 -860 -867 -8 -15 -5 -18 18 -18 23 0 161 134 876 847 l848 848 29
-35 29 -35 -804 -805 c-443 -443 -805 -809 -805 -813 0 -4 12 -7 27 -7 23 0
158 131 821 792 l793 793 30 -35 29 -35 -750 -750 c-412 -413 -750 -754 -750
-758 0 -4 12 -7 27 -7 23 0 150 122 766 738 l738 737 30 -35 29 -35 -695 -695
c-382 -382 -695 -699 -695 -703 0 -4 12 -7 27 -7 23 0 142 114 711 683 l683
682 29 -35 29 -35 -639 -640 c-352 -352 -640 -644 -640 -648 0 -4 12 -7 27 -7
23 0 133 106 654 627 l627 626 26 -29 c14 -16 26 -34 26 -39 0 -6 -257 -267
-571 -580 -313 -314 -575 -578 -580 -587 -8 -15 -5 -18 18 -18 23 0 121 93
598 571 l572 570 28 -36 28 -37 -527 -527 c-289 -289 -526 -530 -526 -534 0
-4 12 -7 27 -7 23 0 116 88 541 512 l513 513 29 -35 29 -35 -469 -470 c-259
-259 -470 -474 -470 -478 0 -4 12 -7 27 -7 22 0 107 80 483 456 l457 455 28
-36 28 -37 -412 -412 c-226 -226 -411 -415 -411 -419 0 -4 12 -7 27 -7 22 0
98 70 423 395 217 217 398 395 402 395 3 0 16 -16 29 -36 l22 -36 -352 -352
c-193 -193 -351 -355 -351 -359 0 -4 12 -7 27 -7 22 0 89 62 367 340 l341 339
23 -34 c12 -19 22 -38 22 -42 0 -5 -126 -134 -281 -288 -154 -154 -285 -288
-290 -297 -8 -15 -5 -18 17 -18 23 0 79 51 308 280 l281 279 23 -34 c12 -19
22 -38 22 -42 0 -5 -99 -107 -221 -228 -121 -121 -225 -228 -230 -237 -8 -15
-5 -18 17 -18 22 0 70 43 248 220 l221 219 23 -34 c12 -19 22 -38 22 -42 0 -5
-72 -80 -161 -168 -88 -88 -165 -168 -170 -177 -8 -15 -5 -18 17 -18 21 0 61
34 188 160 l162 160 23 -41 23 -41 -111 -112 c-61 -62 -111 -116 -111 -119 0
-4 11 -7 26 -7 18 0 51 25 123 95 54 52 100 95 103 95 4 0 16 -16 27 -36 l22
-36 -51 -54 c-27 -29 -50 -55 -50 -58 0 -18 52 -1 87 28 l40 35 42 -21 c27
-13 40 -26 37 -34 -6 -15 34 -20 48 -7 4 4 34 8 67 9 43 1 68 7 87 21 34 26
49 74 33 109 -9 22 -9 31 4 50 8 13 15 33 15 45 0 20 -1 21 -25 5 -24 -16 -25
-16 -40 20 -20 49 -20 50 25 101 23 26 40 56 40 69 0 13 -2 24 -5 24 -3 0 -28
-20 -54 -45 l-49 -46 -17 45 -18 46 72 75 c50 52 71 83 71 100 0 35 -17 24
-100 -59 l-64 -66 -18 32 c-9 18 -17 39 -18 47 0 8 45 60 100 117 74 76 100
109 100 128 0 14 -3 26 -6 26 -4 0 -56 -48 -115 -107 l-108 -106 -20 44 -20
44 135 136 c104 106 134 143 134 163 0 39 -15 27 -160 -118 -69 -69 -127 -126
-131 -126 -3 0 -14 18 -24 40 l-18 40 166 169 c131 132 167 174 167 195 0 14
-3 26 -7 26 -4 0 -84 -77 -179 -171 l-172 -172 -22 43 -22 42 201 203 c160
161 201 207 201 229 0 14 -3 26 -7 26 -4 0 -100 -92 -213 -205 l-206 -205 -23
41 -23 41 236 237 c191 193 236 243 236 265 0 22 -3 25 -17 17 -10 -5 -121
-113 -247 -240 l-230 -230 -24 40 -24 41 271 272 c219 221 271 278 271 299 0
15 -3 27 -7 27 -4 0 -132 -124 -284 -276 l-277 -277 -22 43 -22 43 306 306
c249 250 306 312 306 334 0 15 -3 27 -7 27 -4 0 -147 -140 -319 -311 l-311
-311 -22 35 c-11 19 -21 38 -21 43 0 5 153 162 340 349 278 279 340 346 340
368 0 15 -3 27 -7 27 -4 0 -164 -156 -355 -347 -191 -191 -349 -345 -352 -342
-2 2 -13 20 -25 39 l-21 35 380 380 c312 313 380 386 380 408 0 15 -3 27 -7
27 -4 0 -181 -174 -394 -386 l-386 -386 -22 37 c-11 20 -21 39 -21 43 0 3 187
194 415 422 344 345 415 421 415 443 0 23 -3 26 -17 18 -10 -5 -202 -195 -428
-420 -225 -226 -413 -411 -416 -411 -4 0 -17 16 -29 37 l-21 36 455 457 c376
376 456 461 456 483 0 15 -3 27 -7 27 -4 0 -215 -208 -469 -461 l-462 -461
-26 38 -26 39 495 495 c409 410 495 501 495 523 0 15 -3 27 -7 27 -4 0 -233
-226 -509 -501 l-502 -502 -25 39 -25 39 534 535 c442 444 534 540 534 563 0
15 -3 27 -7 27 -4 0 -251 -243 -549 -541 l-540 -540 -26 38 -26 38 574 575
c476 478 574 580 574 603 0 15 -3 27 -7 27 -4 0 -269 -262 -589 -581 l-582
-581 -26 38 -26 39 615 615 c511 512 615 620 615 643 0 15 -3 27 -7 27 -4 0
-287 -279 -629 -621 l-621 -620 -28 36 -28 37 657 657 c550 551 656 661 656
684 0 23 -3 26 -17 18 -10 -5 -310 -303 -668 -660 -357 -358 -653 -651 -657
-651 -3 0 -16 16 -29 36 l-22 36 697 697 c584 585 696 701 696 724 0 23 -3 26
-17 18 -10 -5 -330 -323 -712 -705 l-695 -695 -27 37 -28 37 739 740 c617 618
740 745 740 768 0 15 -3 27 -7 27 -4 0 -344 -336 -755 -747 -713 -713 -748
-746 -763 -728 -44 57 -98 -3 744 839 652 653 781 786 781 809 0 15 -3 27 -7
27 -4 0 -364 -356 -798 -790 l-791 -791 -27 38 -27 38 825 825 c689 690 825
830 825 853 0 15 -3 27 -7 27 -4 0 -383 -375 -841 -832 l-833 -833 -29 35 -29
35 869 870 c733 733 870 875 870 898 0 24 -3 26 -18 18 -18 -9 -18 -7 -7 37
16 61 29 179 19 169 -4 -4 -20 4 -35 19 -29 28 -100 44 -121 26 -7 -6 -47 -24
-88 -40 -41 -17 -93 -38 -115 -47 l-40 -17 48 50 c26 28 47 54 47 57 0 3 -11
5 -25 5 -19 0 -50 -24 -113 -84 -76 -73 -102 -90 -207 -140 l-120 -57 133 134
c72 73 132 137 132 140 0 4 -12 7 -26 7 -21 0 -64 -37 -203 -174 -175 -174
-177 -175 -311 -245 l-135 -71 238 238 c130 131 237 241 237 245 0 4 -12 7
-27 7 -22 0 -81 -55 -317 -289 l-291 -289 -150 -87 -150 -86 368 368 c202 203
367 372 367 376 0 4 -12 7 -27 7 -22 0 -104 -77 -463 -434 l-435 -434 -175
-112 -175 -111 538 538 c295 296 537 542 537 546 0 4 -12 7 -27 7 -23 0 -133
-106 -655 -627 l-628 -628 -32 33 -33 32 588 588 c323 323 587 591 587 595 0
4 -12 7 -27 7 -23 0 -125 -98 -605 -577 l-578 -578 -32 33 -33 32 538 538
c295 295 537 541 537 545 0 4 -12 7 -27 7 -23 0 -118 -91 -555 -527 l-528
-528 -32 33 -33 32 488 488 c268 268 487 491 487 495 0 4 -12 7 -27 7 -22 0
-110 -83 -504 -476 l-477 -476 -36 28 -36 29 440 440 c242 242 440 444 440
448 0 4 -12 7 -27 7 -22 0 -103 -76 -458 -429 l-430 -430 -34 31 -34 30 392
392 c215 215 391 395 391 399 0 4 -12 7 -27 7 -22 0 -95 -68 -409 -381 l-382
-381 -37 27 -36 28 345 347 c190 190 346 349 346 353 0 4 -12 7 -27 7 -22 0
-89 -62 -364 -336 l-337 -336 -36 28 -36 29 300 300 c165 166 300 304 300 308
0 4 -12 7 -27 7 -22 0 -82 -55 -319 -291 l-292 -291 -37 27 -36 28 255 257
c141 141 256 259 256 263 0 4 -12 7 -27 7 -21 0 -74 -48 -273 -245 -135 -135
-250 -245 -255 -245 -6 0 -23 11 -40 24 l-30 25 212 213 c117 118 213 217 213
221 0 4 -12 7 -27 7 -21 0 -68 -42 -234 -207 l-208 -206 -36 24 c-19 13 -35
26 -35 29 0 3 72 77 161 165 88 88 165 168 170 178 8 14 5 17 -17 17 -21 0
-62 -35 -194 -166 l-168 -166 -41 24 -40 24 125 125 c145 144 157 159 118 159
-20 0 -56 -30 -158 -129 l-131 -130 -35 21 c-19 12 -37 23 -39 25 -3 2 39 48
92 102 53 54 97 101 97 105 0 3 -11 6 -26 6 -18 0 -51 -25 -122 -94 l-97 -94
-43 22 -42 22 56 54 c73 72 83 90 50 90 -17 0 -47 -20 -91 -61 l-65 -62 -45
18 -46 17 36 39 c19 21 35 41 35 44 0 18 -53 -1 -87 -30 -38 -32 -43 -34 -74
-24 -19 6 -40 13 -47 15 -10 3 -10 9 -2 24 9 17 8 20 -12 20 -13 0 -31 -7 -41
-14 -15 -11 -30 -11 -93 1 -130 24 -343 7 -459 -37 -27 -10 -28 -10 -14 7 31
35 31 43 5 43 -17 0 -46 -19 -88 -58z m3880 -1119 l-826 -826 -26 29 c-14 16
-26 34 -26 39 0 6 305 315 678 687 l677 677 170 110 c94 60 172 110 175 110 3
1 -367 -371 -822 -826z m-338 -138 l-574 -574 -28 26 c-15 15 -28 32 -28 38 0
5 170 179 378 386 346 345 391 386 547 500 94 69 193 141 220 162 28 20 52 37
55 37 3 0 -254 -259 -570 -575z m-1267 -1033 c15 -17 1 -33 -250 -282 -147
-146 -258 -254 -247 -240 108 131 470 540 478 540 2 0 10 -8 19 -18z m114
-108 c2 -5 -268 -279 -598 -609 -653 -651 -636 -638 -411 -320 73 103 146 181
516 552 l430 432 30 -23 c16 -12 31 -27 33 -32z m78 -74 l29 -31 -808 -807
c-617 -615 -802 -795 -781 -757 138 249 77 179 829 933 380 380 693 692 697
692 3 0 18 -14 34 -30z m103 -93 l32 -32 -966 -965 -966 -965 62 125 62 125
871 873 c480 479 872 872 873 872 0 0 14 -15 32 -33z"/>
</g>
</svg>
